HIERARCHY
ROOT Hips
{
  OFFSET -5.66989 14.5892 -1.04108
  CHANNELS 6 Xposition Yposition Zposition Zrotation Xrotation Yrotation
  JOINT Bip01_Pelvis
  {
    OFFSET 0 0 0
    CHANNELS 6 Xposition Yposition Zposition Zrotation Xrotation Yrotation
    JOINT BN_Tail_01
    {
      OFFSET -1.93658 -0.0537033 0
      CHANNELS 6 Xposition Yposition Zposition Zrotation Xrotation Yrotation
      JOINT BN_Tail_02
      {
        OFFSET 3.80098 0 0
        CHANNELS 6 Xposition Yposition Zposition Zrotation Xrotation Yrotation
        JOINT BN_Tail_03
        {
          OFFSET 4.13452 0 0
          CHANNELS 6 Xposition Yposition Zposition Zrotation Xrotation Yrotation
          End Site
          {
            OFFSET 0 0 0
          }
        }
      }
    }
    JOINT Bip01_Spine
    {
      OFFSET 2.49484 0.4396 -0.350589
      CHANNELS 6 Xposition Yposition Zposition Zrotation Xrotation Yrotation
      JOINT Bip01_R_Thigh
      {
        OFFSET -2.36788 -0.528529 -2.17686
        CHANNELS 6 Xposition Yposition Zposition Zrotation Xrotation Yrotation
        JOINT Bip01_R_Calf
        {
          OFFSET 7.16877 0 0
          CHANNELS 6 Xposition Yposition Zposition Zrotation Xrotation Yrotation
          JOINT Bip01_R_HorseLink
          {
            OFFSET 5.71658 0 0
            CHANNELS 6 Xposition Yposition Zposition Zrotation Xrotation Yrotation
            JOINT Bip01_R_Foot
            {
              OFFSET 4.09528 0 0
              CHANNELS 6 Xposition Yposition Zposition Zrotation Xrotation Yrotation
              JOINT Bip01_R_Toe3
              {
                OFFSET 0.688901 -0.165618 -0.0515646
                CHANNELS 6 Xposition Yposition Zposition Zrotation Xrotation Yrotation
                JOINT Bip01_R_Toe3Nub
                {
                  OFFSET 2.31698 0 0
                  CHANNELS 6 Xposition Yposition Zposition Zrotation Xrotation Yrotation
                  End Site
                  {
                    OFFSET 0 0 0
                  }
                }
              }
              JOINT Bip01_R_Toe2
              {
                OFFSET 0.917067 0.515958 -0.245308
                CHANNELS 6 Xposition Yposition Zposition Zrotation Xrotation Yrotation
                JOINT Bip01_R_Toe2Nub
                {
                  OFFSET 2.54684 0 0
                  CHANNELS 6 Xposition Yposition Zposition Zrotation Xrotation Yrotation
                  End Site
                  {
                    OFFSET 0 0 0
                  }
                }
              }
              JOINT Bip01_R_Toe1
              {
                OFFSET 0.948626 0.783529 0.204368
                CHANNELS 6 Xposition Yposition Zposition Zrotation Xrotation Yrotation
                JOINT Bip01_R_Toe1Nub
                {
                  OFFSET 2.98415 0 0
                  CHANNELS 6 Xposition Yposition Zposition Zrotation Xrotation Yrotation
                  End Site
                  {
                    OFFSET 0 0 0
                  }
                }
              }
              JOINT Bip01_R_Toe0
              {
                OFFSET 0.945014 0.361084 0.455508
                CHANNELS 6 Xposition Yposition Zposition Zrotation Xrotation Yrotation
                JOINT Bip01_R_Toe0Nub
                {
                  OFFSET 2.53654 0 0
                  CHANNELS 6 Xposition Yposition Zposition Zrotation Xrotation Yrotation
                  End Site
                  {
                    OFFSET 0 0 0
                  }
                }
              }
            }
          }
        }
      }
      JOINT Bip01_L_Thigh
      {
        OFFSET -2.59706 -0.617793 2.62045
        CHANNELS 6 Xposition Yposition Zposition Zrotation Xrotation Yrotation
        JOINT Bip01_L_Calf
        {
          OFFSET 7.16876 0 0
          CHANNELS 6 Xposition Yposition Zposition Zrotation Xrotation Yrotation
          JOINT Bip01_L_HorseLink
          {
            OFFSET 5.71658 0 0
            CHANNELS 6 Xposition Yposition Zposition Zrotation Xrotation Yrotation
            JOINT Bip01_L_Foot
            {
              OFFSET 4.09528 0 0
              CHANNELS 6 Xposition Yposition Zposition Zrotation Xrotation Yrotation
              JOINT Bip01_L_Toe3
              {
                OFFSET 0.688902 -0.165618 0.0515647
                CHANNELS 6 Xposition Yposition Zposition Zrotation Xrotation Yrotation
                JOINT Bip01_L_Toe3Nub
                {
                  OFFSET 2.31698 0 0
                  CHANNELS 6 Xposition Yposition Zposition Zrotation Xrotation Yrotation
                  End Site
                  {
                    OFFSET 0 0 0
                  }
                }
              }
              JOINT Bip01_L_Toe2
              {
                OFFSET 0.917065 0.515959 0.245311
                CHANNELS 6 Xposition Yposition Zposition Zrotation Xrotation Yrotation
                JOINT Bip01_L_Toe2Nub
                {
                  OFFSET 2.54684 0 0
                  CHANNELS 6 Xposition Yposition Zposition Zrotation Xrotation Yrotation
                  End Site
                  {
                    OFFSET 0 0 0
                  }
                }
              }
              JOINT Bip01_L_Toe1
              {
                OFFSET 0.948627 0.78353 -0.204366
                CHANNELS 6 Xposition Yposition Zposition Zrotation Xrotation Yrotation
                JOINT Bip01_L_Toe1Nub
                {
                  OFFSET 2.98415 0 0
                  CHANNELS 6 Xposition Yposition Zposition Zrotation Xrotation Yrotation
                  End Site
                  {
                    OFFSET 0 0 0
                  }
                }
              }
              JOINT Bip01_L_Toe0
              {
                OFFSET 0.945014 0.361085 -0.455508
                CHANNELS 6 Xposition Yposition Zposition Zrotation Xrotation Yrotation
                JOINT Bip01_L_Toe0Nub
                {
                  OFFSET 2.53654 0 0
                  CHANNELS 6 Xposition Yposition Zposition Zrotation Xrotation Yrotation
                  End Site
                  {
                    OFFSET 0 0 0
                  }
                }
              }
            }
          }
        }
      }
      JOINT Bip01_Spine1
      {
        OFFSET 3.72608 -0.00323868 0.000187963
        CHANNELS 6 Xposition Yposition Zposition Zrotation Xrotation Yrotation
        JOINT BN_Finger_R_01
        {
          OFFSET 3.00123 -0.0843508 -4.58748
          CHANNELS 6 Xposition Yposition Zposition Zrotation Xrotation Yrotation
          JOINT BN_Finger_R_02
          {
            OFFSET 5.88015 0 0
            CHANNELS 6 Xposition Yposition Zposition Zrotation Xrotation Yrotation
            End Site
            {
              OFFSET 0 0 0
            }
          }
        }
        JOINT BN_Finger_L_01
        {
          OFFSET 3.00122 -0.0843704 4.58724
          CHANNELS 6 Xposition Yposition Zposition Zrotation Xrotation Yrotation
          JOINT BN_Finger_L_02
          {
            OFFSET 5.88015 0 0
            CHANNELS 6 Xposition Yposition Zposition Zrotation Xrotation Yrotation
            End Site
            {
              OFFSET 0 0 0
            }
          }
        }
        JOINT Bip01_Neck
        {
          OFFSET 4.13883 -0.0022707 1.01402e-005
          CHANNELS 6 Xposition Yposition Zposition Zrotation Xrotation Yrotation
          JOINT Bip01_Neck1
          {
            OFFSET 3.21838 -0.00219488 -2.03252e-005
            CHANNELS 6 Xposition Yposition Zposition Zrotation Xrotation Yrotation
            JOINT Bip01_Neck2
            {
              OFFSET 3.42188 -0.00260592 1.77622e-005
              CHANNELS 6 Xposition Yposition Zposition Zrotation Xrotation Yrotation
              JOINT Bip01_Head
              {
                OFFSET 3.32298 0 0
                CHANNELS 6 Xposition Yposition Zposition Zrotation Xrotation Yrotation
                JOINT BN_Mouth_01
                {
                  OFFSET 1.65821 0.977865 2.28871e-005
                  CHANNELS 6 Xposition Yposition Zposition Zrotation Xrotation Yrotation
                  End Site
                  {
                    OFFSET 0 0 0
                  }
                }
                JOINT Bip01_HeadNub
                {
                  OFFSET 4.48783 0 0
                  CHANNELS 6 Xposition Yposition Zposition Zrotation Xrotation Yrotation
                  End Site
                  {
                    OFFSET 0 0 0
                  }
                }
              }
            }
          }
        }
      }
    }
  }
}
MOTION
Frames:	4
Frame Time:	0.0333333
-5.66989 14.7999 0.345343 90 -86.9999 -180 -9.53674e-007 3.72529e-009 8.88178e-016 -89.9998 9.96267 -97.9999 -1.93658 -0.0537033 -2.563e-006 19.8658 0.00628032 -177.435 3.80098 9.53674e-007 3.72529e-008 -9.69078 0.0607946 2.99848 4.13452 9.53674e-007 5.96046e-008 -8.35924 1.05085 3.45804 2.49484 0.4396 -0.350589 -2.9344 -1.06486 2.73506 -2.36788 -0.528529 -2.17686 -130.688 -25.1114 167.497 7.16877 -9.53674e-007 0 -69.8587 1.17279e-005 -1.10125e-005 5.71658 0 -1.19209e-007 50.8435 4.68867e-007 2.21102e-006 4.09528 -2.22045e-016 1.19209e-007 -30.6847 13.0374 -9.7645 0.688901 -0.165618 -0.0515646 106.878 -3.13904 169.769 2.31698 -5.55112e-017 0 3.96275e-007 1.26866e-006 5.2878e-007 0.917067 0.515958 -0.245308 82.8906 -4.86897 22.5055 2.54684 1.11022e-016 2.22045e-016 2.48934e-007 -6.44097e-008 -6.65213e-008 0.948626 0.783529 0.204368 85.6132 1.2842 -15.4878 2.98415 -1.11022e-016 1.78814e-007 4.00073e-008 -1.04351e-007 2.18711e-007 0.945014 0.361084 0.455508 88.8104 6.74177 -53.4495 2.53654 5.96046e-008 5.96047e-008 -4.98408e-008 5.71326e-010 2.61383e-008 -2.59706 -0.617793 2.62045 -104.309 9.93549 -160.527 7.16876 -4.44089e-016 -4.76837e-007 -90.9247 -4.43443e-006 1.0721e-005 5.71658 4.76837e-007 2.38419e-006 25.4421 9.78706e-007 -1.91509e-005 4.09528 0 8.88178e-016 -12.2671 12.1496 -2.61006 0.688902 -0.165618 0.0515647 -172.083 10.5973 178.535 2.31698 9.53675e-007 0 -180 -1.01362e-005 -9.10011e-006 0.917065 0.515959 0.245311 83.7019 4.10274 -22.5629 2.54684 9.53675e-007 -4.44089e-016 -180 -1.04109e-005 -1.02969e-005 0.948627 0.78353 -0.204366 100.172 2.6911 15.3157 2.98415 -4.76837e-007 8.88178e-016 -180 1.64913e-005 1.82687e-005 0.945014 0.361085 -0.455508 91.9031 -2.06182 53.6708 2.53654 4.76837e-007 0 -180 -1.34896e-006 -1.01935e-005 3.72608 -0.00323868 0.000187963 -10.3881 -3.25742 9.42927 3.00123 -0.0843506 -4.58748 18.5722 -0.103962 164.718 5.88015 -3.55271e-015 2.86102e-006 2.81792 -0.15134 12.3217 3.00122 -0.0843706 4.58724 -161.052 -0.14233 -11.2378 5.88015 -1.90735e-006 4.76837e-007 -3.29384 -0.211052 10.5172 4.13883 -0.0022707 1.01402e-005 -27.7125 -0.238184 -0.821101 3.21838 -0.00219488 -2.03252e-005 -36.4195 0.435901 1.63567 3.42188 -0.00260592 1.77622e-005 9.89185 -0.35841 -2.18025 3.32298 4.76837e-007 2.22045e-016 66.7988 -2.34637 -0.531156 1.65821 0.977865 2.28882e-005 -164.207 -0.0184479 -179.997 4.48783 3.8147e-006 -2.22045e-016 -1.40627e-006 9.76268e-007 2.53747e-008 
-5.66989 14.7244 0.408141 89.9999 -87.1906 180 -9.53674e-007 3.72529e-009 8.88178e-016 -89.2279 9.9361 -98.1112 -1.93658 -0.0537033 -2.563e-006 20.4013 -0.00128038 -177.358 3.80098 9.53674e-007 3.72529e-008 -9.89049 0.0806901 3.027 4.13452 9.53674e-007 5.96046e-008 -8.40959 1.09839 3.39977 2.49484 0.4396 -0.350589 -3.15552 -1.85884 2.68377 -2.36788 -0.528529 -2.17686 -130.931 -25.1055 167.34 7.16877 -9.53674e-007 6.66134e-016 -72.7623 -8.24728e-006 -3.87332e-006 5.71658 -1.77636e-015 -1.19209e-007 51.9828 5.90748e-006 6.39989e-006 4.09528 2.44249e-015 1.19209e-007 -30.0015 12.9164 -9.74894 0.688901 -0.165618 -0.0515646 107.463 -3.14597 169.772 2.31698 9.99201e-016 -1.77636e-015 3.96275e-007 1.26866e-006 5.2878e-007 0.917067 0.515958 -0.245308 83.4586 -4.87164 22.5076 2.54684 -2.10942e-015 6.66134e-016 2.48934e-007 -6.44097e-008 -6.65213e-008 0.948626 0.783529 0.204368 86.18 1.27685 -15.4875 2.98415 4.55191e-015 1.78814e-007 4.00073e-008 -1.04351e-007 2.18711e-007 0.945014 0.361084 0.455508 89.3752 6.73015 -53.4506 2.53654 5.96046e-008 5.96047e-008 -4.98408e-008 5.71308e-010 2.61383e-008 -2.59706 -0.617793 2.62045 -104.565 9.60147 -160.206 7.16876 8.88179e-016 -4.76837e-007 -93.5052 1.50935e-007 1.07482e-005 5.71658 4.76837e-007 2.38419e-006 28.4747 9.96464e-006 -4.19251e-007 4.09528 -3.55272e-015 0 -16.8157 12.4973 -2.50268 0.688902 -0.165618 0.0515647 -169.147 10.7681 178.341 2.31698 9.53675e-007 0 -180 -1.01362e-005 -9.10011e-006 0.917065 0.515959 0.245311 85.9857 4.73992 -22.3641 2.54684 9.53675e-007 1.33227e-015 -180 -1.04109e-005 -1.02969e-005 0.948627 0.78353 -0.204366 102.122 2.64793 15.5342 2.98415 -4.76837e-007 -4.44089e-015 -180 1.64913e-005 1.82687e-005 0.945014 0.361085 -0.455508 94.3409 -2.88944 53.9587 2.53654 4.76837e-007 0 -180 -1.34896e-006 -1.01935e-005 3.72608 -0.00323868 0.000187963 -10.4015 -3.24676 9.40172 3.00123 -0.0843506 -4.58748 18.979 -0.225274 164.851 5.88015 -3.55271e-015 2.86102e-006 2.86225 -0.167834 12.1556 3.00122 -0.0843706 4.58724 -161.001 -0.147855 -11.2813 5.88015 -1.90735e-006 4.76837e-007 -3.22928 -0.195229 10.4802 4.13883 -0.0022707 1.01402e-005 -27.7643 -0.179203 -0.815396 3.21838 -0.00219488 -2.03252e-005 -35.9965 0.50917 1.48346 3.42188 -0.00260592 1.77622e-005 10.283 -0.363552 -2.1791 3.32298 4.76837e-007 1.11022e-016 66.4619 -2.25748 -0.590132 1.65821 0.977865 2.28882e-005 -164.213 1.52588e-005 -180 4.48783 3.8147e-006 1.11022e-015 -1.40627e-006 9.76268e-007 2.53747e-008 
-5.66989 14.6405 0.469006 90 -87.4035 -180 -9.53674e-007 3.72529e-009 0 -88.4926 9.85719 -98.1716 -1.93658 -0.0537033 -2.563e-006 21.0477 -0.0128177 -177.232 3.80098 9.53674e-007 3.72529e-008 -9.98983 0.110834 3.11039 4.13452 9.53674e-007 5.96046e-008 -8.31118 1.14715 3.36497 2.49484 0.4396 -0.350589 -3.37841 -2.60948 2.61261 -2.36788 -0.528529 -2.17686 -131.2 -25.0911 167.205 7.16877 -9.53674e-007 2.22045e-016 -75.5938 -1.36951e-005 -2.65033e-006 5.71658 -4.44089e-015 -1.19209e-007 53.0873 -1.58539e-005 -1.01251e-005 4.09528 2.66454e-015 1.19209e-007 -29.2494 12.7526 -9.76583 0.688901 -0.165618 -0.0515646 107.995 -3.1654 169.78 2.31698 9.4369e-016 1.9984e-015 3.96275e-007 1.26866e-006 5.2878e-007 0.917067 0.515958 -0.245308 83.9409 -4.8793 22.5137 2.54684 -7.21645e-015 6.66134e-016 2.48934e-007 -6.44097e-008 -6.65213e-008 0.948626 0.783529 0.204368 86.659 1.25575 -15.4867 2.98415 1.55431e-015 1.78814e-007 4.00073e-008 -1.04351e-007 2.18711e-007 0.945014 0.361084 0.455508 89.8486 6.69671 -53.4536 2.53654 5.96046e-008 5.96047e-008 -4.98408e-008 5.71321e-010 2.61383e-008 -2.59706 -0.617793 2.62045 -104.881 9.33111 -159.925 7.16876 1.33227e-015 -4.76837e-007 -96.5071 -6.97671e-006 9.88902e-006 5.71658 4.76837e-007 2.38419e-006 32.6044 7.71382e-006 -4.21932e-006 4.09528 -3.55272e-015 8.88178e-016 -22.3329 12.6928 -2.51215 0.688902 -0.165618 0.0515647 -166.914 10.8998 178.202 2.31698 9.53675e-007 2.66454e-015 -180 -1.01362e-005 -9.10011e-006 0.917065 0.515959 0.245311 86.4792 6.23004 -22.1789 2.54684 9.53675e-007 3.9968e-015 -180 -1.04109e-005 -1.02969e-005 0.948627 0.78353 -0.204366 101.67 2.10246 15.8035 2.98415 -4.76837e-007 -6.21725e-015 -180 1.64913e-005 1.82687e-005 0.945014 0.361085 -0.455508 95.2396 -5.59726 54.3027 2.53654 4.76837e-007 0 -180 -1.34896e-006 -1.01935e-005 3.72608 -0.00323868 0.000187963 -10.4386 -3.21673 9.32401 3.00123 -0.0843506 -4.58748 19.3826 -0.336343 164.973 5.88015 1.42109e-014 2.86102e-006 2.7885 -0.181218 12.0787 3.00122 -0.0843706 4.58724 -160.892 -0.158135 -11.3359 5.88015 -1.90735e-006 4.76837e-007 -3.057 -0.153004 10.4124 4.13883 -0.0022707 1.01402e-005 -27.9307 -0.142364 -0.822163 3.21838 -0.00219488 -2.03252e-005 -35.46 0.572854 1.33824 3.42188 -0.00260592 1.77622e-005 10.7409 -0.36267 -2.17323 3.32298 4.76837e-007 -5.55112e-016 66.1153 -2.11189 -0.665445 1.65821 0.977865 2.28881e-005 -164.231 1.52588e-005 -180 4.48783 3.8147e-006 -1.77636e-015 -1.40627e-006 9.76268e-007 2.53747e-008 
-5.66989 14.5492 0.52909 89.9999 -87.6403 180 -9.53674e-007 3.72529e-009 1.77636e-015 -87.7735 9.72907 -98.1832 -1.93658 -0.0537033 -2.563e-006 21.7176 -0.0275525 -177.099 3.80098 9.53674e-007 3.72529e-008 -10.0174 0.1469 3.22017 4.13452 9.53674e-007 5.96046e-008 -8.14544 1.19395 3.35332 2.49484 0.4396 -0.350589 -3.61005 -3.33775 2.52055 -2.36788 -0.528529 -2.17686 -131.476 -25.0704 167.09 7.16877 -9.53674e-007 6.66134e-016 -78.3964 1.32637e-005 -8.64061e-006 5.71658 3.10862e-015 -1.19209e-007 54.1718 3.65207e-006 4.46944e-006 4.09528 3.9968e-015 1.19209e-007 -28.4132 12.5437 -9.80679 0.688901 -0.165618 -0.0515646 108.494 -3.19794 169.793 2.31698 3.55271e-015 -2.44249e-015 3.96275e-007 1.26866e-006 5.2878e-007 0.917067 0.515958 -0.245308 84.3572 -4.89216 22.524 2.54684 -5.55112e-016 0 2.48934e-007 -6.44097e-008 -6.65213e-008 0.948626 0.783529 0.204368 87.0696 1.22041 -15.4855 2.98415 5.77316e-015 1.78814e-007 4.00073e-008 -1.04351e-007 2.18711e-007 0.945014 0.361084 0.455508 90.2498 6.64074 -53.4588 2.53654 5.96046e-008 5.96047e-008 -4.98408e-008 5.71379e-010 2.61383e-008 -2.59706 -0.617793 2.62045 -105.173 9.14377 -159.693 7.16876 -2.66454e-015 -4.76837e-007 -99.8076 1.73166e-005 1.36368e-005 5.71658 4.76837e-007 2.38419e-006 37.744 8.12486e-006 -3.50138e-006 4.09528 0 0 -28.7581 12.7652 -2.64051 0.688902 -0.165618 0.0515647 -165.344 11.0045 178.139 2.31698 9.53675e-007 8.88178e-016 -180 -1.01362e-005 -9.10011e-006 0.917065 0.515959 0.245311 85.2689 8.48868 -21.829 2.54684 9.53675e-007 1.77636e-015 -180 -1.04109e-005 -1.02969e-005 0.948627 0.78353 -0.204366 98.965 1.05929 16.0741 2.98415 -4.76837e-007 -3.55271e-015 -180 1.64913e-005 1.82687e-005 0.945014 0.361085 -0.455508 94.6674 -10.0989 54.4613 2.53654 4.76837e-007 0 -180 -1.34896e-006 -1.01935e-005 3.72608 -0.00323868 0.000187963 -10.498 -3.16775 9.19649 3.00123 -0.0843506 -4.58748 19.7602 -0.450198 165.084 5.88015 1.77636e-014 2.86102e-006 2.61513 -0.205756 12.0629 3.00122 -0.0843707 4.58724 -160.732 -0.173112 -11.4 5.88015 -1.90735e-006 4.76837e-007 -2.79398 -0.0885485 10.3178 4.13883 -0.0022707 1.01402e-005 -28.2048 -0.123855 -0.83982 3.21838 -0.00219488 -2.03252e-005 -34.8083 0.628445 1.19495 3.42188 -0.00260592 1.77622e-005 11.2684 -0.356137 -2.16274 3.32298 4.76837e-007 2.22045e-016 65.752 -1.91118 -0.758605 1.65821 0.977865 2.28881e-005 -164.261 1.52588e-005 -180 4.48783 3.8147e-006 0 -1.40627e-006 9.76268e-007 2.53747e-008 
